<svg xmlns="http://www.w3.org/2000/svg" viewBox="0 0 64 64">
  <circle cx="32" cy="32" r="30" fill="#ece2f6"/>
  <path d="M12 42c1-10 9-15 19-14l10 2 4-15c1-6 11-7 13-1 1 4-2 7-7 7l-3 21c-1 8-8 12-18 11-11 0-19-3-18-11z" fill="#9d7fc4"/>
  <path d="M46 15c4-5 11-4 13 1-3 4-8 5-12 3z" fill="#cdbbe6"/>
  <circle cx="53" cy="15" r="2.4" fill="#2f2940"/>
  <path d="M40 17l1-7M44 19l2-7M47 23l3-6M48 29l5-4" fill="none" stroke="#e0d0f0" stroke-width="2.4" stroke-linecap="round"/>
  <path d="M20 47v9M36 47v9" stroke="#7d62a4" stroke-width="5" stroke-linecap="round"/>
  <path d="M14 39 5 33" stroke="#9d7fc4" stroke-width="6" stroke-linecap="round"/>
</svg>
