<svg xmlns="http://www.w3.org/2000/svg" viewBox="0 0 64 64">
  <circle cx="32" cy="32" r="30" fill="#d4ecf5"/>
  <path d="M8 33c2-12 12-19 24-18 11 1 18 9 17 19l-8 13-25-1z" fill="#5f93b0"/>
  <path d="M40 24c8-2 16 2 21 9l-15 2z" fill="#bfe0ef"/>
  <path d="M46 33l14 3-14 2z" fill="#9cccde"/>
  <path d="m47 33 13 3M50 38l9 1" fill="none" stroke="#fff5da" stroke-width="1.6" stroke-linecap="round"/>
  <circle cx="40" cy="26" r="3" fill="#222a33"/>
  <path d="M16 42l-8 7 2-9" fill="none" stroke="#fff5da" stroke-width="3" stroke-linecap="round" stroke-linejoin="round"/>
  <path d="M24 49l-3 9 8-6M40 48l5 10 4-9" fill="none" stroke="#487189" stroke-width="4" stroke-linecap="round" stroke-linejoin="round"/>
</svg>
