<svg xmlns="http://www.w3.org/2000/svg" viewBox="0 0 64 64">
  <circle cx="32" cy="32" r="30" fill="#d9f5ed"/>
  <path d="M13 43c1-10 9-16 20-14l9 3 3-20c1-7 12-8 14-1 1 4-2 7-7 8l-2 24c-1 8-8 12-18 11-11 0-20-3-19-11z" fill="#62b8a4"/>
  <path d="M44 11c4-5 12-4 14 1-3 4-8 6-13 4z" fill="#a8dfcf"/>
  <circle cx="52" cy="12" r="2.5" fill="#2f2940"/>
  <path d="M20 48v9M36 48v9" stroke="#438b7b" stroke-width="5" stroke-linecap="round"/>
  <path d="M15 40 5 34" stroke="#62b8a4" stroke-width="6" stroke-linecap="round"/>
</svg>
