<svg xmlns="http://www.w3.org/2000/svg" viewBox="0 0 64 64">
  <circle cx="32" cy="32" r="30" fill="#ffe1cf"/>
  <path d="M10 35c2-13 13-21 27-20 13 2 21 11 18 23-3 13-18 20-31 15-10-3-16-10-14-18z" fill="#e07a4f"/>
  <path d="M36 18c7-4 15-2 20 4l-14 6z" fill="#ffd0a0"/>
  <path d="M40 17l-4-9M48 19l5-8" fill="none" stroke="#fff5da" stroke-width="3" stroke-linecap="round"/>
  <circle cx="44" cy="24" r="3" fill="#292337"/>
  <path d="m44 31 3 4 3-4 3 4" fill="none" stroke="#fff5da" stroke-width="2" stroke-linecap="round" stroke-linejoin="round"/>
  <path d="M18 45 8 51M26 49l-3 9 8-6M42 47l5 10 4-9" fill="none" stroke="#b35a36" stroke-width="4" stroke-linecap="round" stroke-linejoin="round"/>
</svg>
