<svg xmlns="http://www.w3.org/2000/svg" viewBox="0 0 64 64">
  <circle cx="32" cy="32" r="30" fill="#def0d8"/>
  <path d="M20 23c-1-9 3-15 7-15 3 0 5 5 5 14z" fill="#ff9a62"/>
  <path d="M33 22c0-9 4-14 7-14 4 1 7 7 5 16z" fill="#ffb98a"/>
  <path d="M13 36c3-12 14-19 26-15 10 3 15 12 12 22-4 11-16 15-26 10-9-4-13-10-12-17z" fill="#6fae6a"/>
  <path d="M40 27c6 0 10 3 11 7l-11 3z" fill="#a4d49c"/>
  <circle cx="36" cy="31" r="3" fill="#fff"/><circle cx="37" cy="32" r="2" fill="#292337"/>
  <path d="M37 42c3 2 7 1 9-2" fill="none" stroke="#3d7544" stroke-width="2.5" stroke-linecap="round"/>
</svg>
