<svg xmlns="http://www.w3.org/2000/svg" viewBox="0 0 64 64">
  <circle cx="32" cy="32" r="30" fill="#f2e6c4"/>
  <path d="M13 38c0-9 9-15 21-15s21 6 21 15-9 13-21 13-21-4-21-13z" fill="#a0884e"/>
  <path d="M18 24l-4-11 9 8M28 21l-2-12 7 11M39 22l3-12 4 12M49 27l8-9-3 13" fill="none" stroke="#fff5da" stroke-width="2.6" stroke-linecap="round" stroke-linejoin="round"/>
  <circle cx="49" cy="38" r="3" fill="#2f2940"/>
  <path d="M55 33l7-2M55 41l7 3" fill="none" stroke="#e8d39a" stroke-width="3" stroke-linecap="round"/>
  <path d="M22 48l-3 6M30 50v6M38 49l2 6" fill="none" stroke="#7d6a3a" stroke-width="4" stroke-linecap="round"/>
</svg>
