<svg xmlns="http://www.w3.org/2000/svg" viewBox="0 0 64 64">
  <circle cx="32" cy="32" r="30" fill="#d6e6f9"/>
  <path d="M46 26l9-10 3 13-9 4z" fill="#4d7fd1"/>
  <path d="M7 36c8-11 25-15 39-8 4 2 6 4 7 7-10 7-28 9-39 4-4-1-6-2-7-3z" fill="#4d7fd1"/>
  <path d="M22 38l-6 8 12-2z" fill="#aee3f5"/>
  <path d="M8 38c10 5 27 4 38-2" fill="none" stroke="#3a66a8" stroke-width="2" stroke-linecap="round" opacity="0.5"/>
  <circle cx="15" cy="33" r="3" fill="#fff"/><circle cx="14" cy="34" r="2" fill="#292337"/>
  <path d="M6 48q5-4 10 0t10 0 10 0 10 0 10 0" fill="none" stroke="#aee3f5" stroke-width="3.5" stroke-linecap="round"/>
</svg>
