<svg xmlns="http://www.w3.org/2000/svg" viewBox="0 0 64 64">
  <circle cx="32" cy="32" r="30" fill="#dcf2f6"/>
  <path d="M40 19C34 9 24 5 15 9c5 8 14 12 23 14z" fill="#ffd9a0"/>
  <path d="M17 37c2-13 13-20 25-16 10 3 15 13 12 23-4 11-16 16-27 11-8-4-11-11-10-18z" fill="#5fb8c9"/>
  <path d="M44 26c5 1 8 4 9 8l-10 2z" fill="#a8e2ee"/>
  <circle cx="41" cy="30" r="3" fill="#fff"/><circle cx="42" cy="31" r="2" fill="#292337"/>
  <path d="M40 41c3 2 7 1 9-2" fill="none" stroke="#2f7585" stroke-width="2.5" stroke-linecap="round"/>
</svg>
