<svg xmlns="http://www.w3.org/2000/svg" viewBox="0 0 64 64">
  <circle cx="32" cy="32" r="30" fill="#f4ecd2"/>
  <path d="M15 36c0-11 9-18 20-17 9 1 15 8 14 17s-8 14-19 14-15-5-15-14z" fill="#cbb07a"/>
  <path d="M19 25c7-7 21-6 27 3l-5 11-22-2z" fill="#f0e0b0"/>
  <circle cx="26" cy="34" r="3" fill="#2f2940"/><circle cx="43" cy="34" r="3" fill="#2f2940"/>
  <path d="M48 39l5 2-5 2z" fill="#3a3326"/>
  <path d="M30 43c4 2 7 2 10 0" fill="none" stroke="#9a814f" stroke-width="3" stroke-linecap="round"/>
  <path d="M24 47l-2 6M34 48v6M42 47l2 6" fill="none" stroke="#a68a52" stroke-width="3.5" stroke-linecap="round"/>
</svg>
