<svg xmlns="http://www.w3.org/2000/svg" viewBox="0 0 64 64">
  <circle cx="32" cy="32" r="30" fill="#eadfff"/>
  <path d="M10 34c2-13 13-21 27-20 13 2 21 11 18 23-3 13-18 20-31 15-10-3-16-10-14-18z" fill="#9573cf"/>
  <path d="M37 17c7-4 15-2 20 4l-14 6z" fill="#d0b8ff"/>
  <circle cx="43" cy="23" r="3" fill="#292337"/>
  <path d="M17 45 5 51M24 49l-3 9 8-6M42 47l5 10 4-9" fill="none" stroke="#674a9d" stroke-width="4" stroke-linecap="round" stroke-linejoin="round"/>
  <path d="m45 33 4 4 4-5" fill="none" stroke="#fff5da" stroke-width="2"/>
</svg>
