<svg xmlns="http://www.w3.org/2000/svg" viewBox="0 0 64 64">
  <circle cx="32" cy="32" r="30" fill="#d8e9f4"/>
  <path d="M12 30C14 14 30 6 44 12l-4 16z" fill="#ffcf70"/>
  <path d="M16 27l2-10M23 22l3-10M31 19l4-9" fill="none" stroke="#e8a83e" stroke-width="2" stroke-linecap="round"/>
  <path d="M10 36c3-12 16-18 28-14 11 4 16 13 12 23-4 10-17 14-27 9-9-4-14-11-13-18z" fill="#4f8fb8"/>
  <path d="M38 28c8-1 14 1 17 5-3 6-10 9-17 7z" fill="#2f6e94"/>
  <path d="m41 33 3 5 3-6 3 5 3-6 3 5" fill="#fff6dc"/>
  <circle cx="34" cy="27" r="3.2" fill="#fff"/><circle cx="35" cy="28" r="2" fill="#292337"/>
</svg>
