<svg xmlns="http://www.w3.org/2000/svg" viewBox="0 0 64 64">
  <circle cx="32" cy="32" r="30" fill="#fff0bc"/>
  <path d="M8 39c4-13 17-19 31-14 9 2 15 8 16 17-6 8-18 12-31 9-9-2-15-6-16-12z" fill="#e3a64f"/>
  <path d="m14 29 5-13 7 11 5-16 7 15 7-11 4 16" fill="#ffd96e" stroke="#bd763b" stroke-width="2" stroke-linejoin="round"/>
  <circle cx="45" cy="37" r="3" fill="#2f2940"/>
  <path d="M14 43 3 48M15 39 3 36" stroke="#bd763b" stroke-width="3" stroke-linecap="round"/>
  <path d="M22 48v8M43 48v8" stroke="#bd763b" stroke-width="5" stroke-linecap="round"/>
</svg>
