<svg xmlns="http://www.w3.org/2000/svg" viewBox="0 0 64 64">
  <circle cx="32" cy="32" r="30" fill="#eff3da"/>
  <path d="M14 38c2-14 12-22 24-19 11 3 16 13 13 24-3 10-13 15-23 12-9-3-15-9-14-17z" fill="#9db86a"/>
  <ellipse cx="33" cy="42" rx="12" ry="10" fill="#fff3c9"/>
  <path d="M16 32v12M21 34v13M26 35v12" fill="none" stroke="#fff7d9" stroke-width="3" stroke-linecap="round"/>
  <path d="M16 32v12M21 34v13M26 35v12" fill="none" stroke="#8d7b55" stroke-width="1" stroke-linecap="round"/>
  <circle cx="36" cy="26" r="3" fill="#fff"/><circle cx="37" cy="27" r="2" fill="#292337"/>
  <path d="M37 33c2 2 5 2 7 0" fill="none" stroke="#6b8244" stroke-width="2.5" stroke-linecap="round"/>
</svg>
