<svg xmlns="http://www.w3.org/2000/svg" viewBox="0 0 64 64">
  <circle cx="32" cy="32" r="30" fill="#ffd9c8"/>
  <path d="M9 31c3-15 17-23 33-18 12 4 17 14 11 25-7 12-23 17-35 10-7-4-10-10-9-17z" fill="#d9685c"/>
  <path d="M25 31c9-7 22-6 30 1-4 13-18 19-30 12z" fill="#8e3940"/>
  <path d="m29 32 4 7 4-8 4 7 4-8 4 6" fill="#fff6dc"/>
  <circle cx="25" cy="24" r="4" fill="#fff"/><circle cx="26" cy="25" r="2.5" fill="#292337"/>
  <path d="M13 43 4 50" stroke="#d9685c" stroke-width="7" stroke-linecap="round"/>
</svg>
