<svg xmlns="http://www.w3.org/2000/svg" viewBox="0 0 64 64">
  <circle cx="32" cy="32" r="30" fill="#dff6b8"/>
  <path d="M13 31c2-13 12-21 25-19 10 2 16 10 14 21-2 12-13 19-26 16-10-2-15-9-13-18z" fill="#72c866"/>
  <path d="M19 18c8-8 24-7 31 4l-6 13-26-3z" fill="#bce88e"/>
  <path d="M18 23 8 14l4 15M35 17l3-13 4 15M47 25l11-7-8 14" fill="#fff7d9" stroke="#8d7b55" stroke-width="2" stroke-linecap="round"/>
  <circle cx="25" cy="31" r="3" fill="#2f2940"/><circle cx="44" cy="31" r="3" fill="#2f2940"/>
  <path d="M29 41c4 3 8 3 12 0" fill="none" stroke="#477f42" stroke-width="3" stroke-linecap="round"/>
</svg>
