<svg xmlns="http://www.w3.org/2000/svg" viewBox="0 0 256 256">
  <!-- 应用图标母版：圆角瓦片 + 天空渐变 + 太阳 + 小岛 + 霸王龙脸（阶段 9 再转 PNG） -->
  <defs>
    <linearGradient id="sky" x1="0" y1="0" x2="0" y2="1">
      <stop offset="0" stop-color="#8fd0ff"/>
      <stop offset="0.6" stop-color="#cdeffb"/>
      <stop offset="1" stop-color="#fff0b3"/>
    </linearGradient>
    <clipPath id="tile">
      <rect width="256" height="256" rx="58"/>
    </clipPath>
  </defs>
  <g clip-path="url(#tile)">
    <rect width="256" height="256" fill="url(#sky)"/>
    <circle cx="206" cy="50" r="26" fill="#ffd25a"/>
    <circle cx="206" cy="50" r="34" fill="#ffd25a" opacity="0.35"/>
    <path d="M-10 210 Q60 168 128 196 Q196 164 266 200 V256 H-10 Z" fill="#9ade8f"/>
    <path d="M-10 232 Q90 206 180 228 Q230 216 266 228 V256 H-10 Z" fill="#71cf6d"/>
    <!-- 白色贴纸底圈 + 恐龙脸（与 public/icons/trex.svg 同款造型） -->
    <circle cx="126" cy="138" r="88" fill="#fff" opacity="0.92"/>
    <g transform="translate(53,65) scale(2.32)">
      <circle cx="32" cy="32" r="30" fill="#ffd9c8"/>
      <path d="M9 31c3-15 17-23 33-18 12 4 17 14 11 25-7 12-23 17-35 10-7-4-10-10-9-17z" fill="#d9685c"/>
      <path d="M25 31c9-7 22-6 30 1-4 13-18 19-30 12z" fill="#8e3940"/>
      <path d="m29 32 4 7 4-8 4 7 4-8 4 6" fill="#fff6dc"/>
      <circle cx="25" cy="24" r="4" fill="#fff"/><circle cx="26" cy="25" r="2.5" fill="#292337"/>
      <path d="M13 43 4 50" stroke="#d9685c" stroke-width="7" stroke-linecap="round"/>
    </g>
  </g>
</svg>
